<svg xmlns="http://www.w3.org/2000/svg" xmlns:xlink="http://www.w3.org/1999/xlink" width="14px" height="13px">
  <path
    fill-rule="evenodd"
    fill="rgb(236, 240, 241)"
    d="M8.755,13.000 L8.755,11.741 L10.871,11.741 L8.148,9.018 L9.034,8.132 L11.757,10.855 L11.757,8.739 L13.016,8.739 L13.016,13.000 L8.755,13.000 ZM11.757,2.145 L9.034,4.871 L8.148,3.982 L10.871,1.259 L8.755,1.259 L8.755,-0.000 L13.016,-0.000 L13.016,4.261 L11.757,4.261 L11.757,2.145 ZM4.278,11.741 L4.278,13.000 L0.016,13.000 L0.016,8.739 L1.275,8.739 L1.275,10.855 L3.998,8.132 L4.887,9.018 L2.162,11.741 L4.278,11.741 ZM3.998,4.871 L1.275,2.145 L1.275,4.261 L0.016,4.261 L0.016,-0.000 L4.278,-0.000 L4.278,1.259 L2.162,1.259 L4.887,3.982 L3.998,4.871 Z"/>
</svg>
