<svg xmlns="http://www.w3.org/2000/svg" viewBox="0 0 492.99 512" width="25px" height="25px">
  <defs>
    <style>
      .cls-1 {
        fill: #2980b9;
      }

    </style>
  </defs>
  <title>Search icon</title>
  <g data-name="Search">
    <g><path
      class="cls-1"
      d="M490.3,495.63,346.66,346.26A202.36,202.36,0,0,0,406,203C406,91.06,314.94,0,203,0S0,91.06,0,203,91.06,406,203,406a202.06,202.06,0,0,0,129.38-46.71L476.36,509a9.67,9.67,0,1,0,13.94-13.4ZM203,386.66C101.72,386.66,19.33,304.27,19.33,203S101.72,19.33,203,19.33,386.66,101.72,386.66,203,304.27,386.66,203,386.66Z"/></g>
  </g>
</svg>
