<svg xmlns="http://www.w3.org/2000/svg" xmlns:xlink="http://www.w3.org/1999/xlink" width="13px" height="13px">
  <path
    fill-rule="evenodd"
    fill="rgb(236, 240, 241)"
    d="M-0.000,4.284 L-0.000,8.716 L2.889,8.716 L6.500,12.409 L6.500,0.591 L2.889,4.284 L-0.000,4.284 ZM9.750,6.500 C9.750,5.170 9.028,4.063 7.944,3.545 L7.944,9.455 C9.028,8.937 9.750,7.830 9.750,6.500 ZM7.944,0.000 L7.944,1.551 C10.039,2.216 11.556,4.136 11.556,6.500 C11.556,8.864 10.039,10.784 7.944,11.449 L7.944,13.000 C10.833,12.335 13.000,9.676 13.000,6.500 C13.000,3.324 10.833,0.665 7.944,0.000 Z"/>
</svg>
