<svg xmlns="http://www.w3.org/2000/svg" xmlns:xlink="http://www.w3.org/1999/xlink" width="281px" height="60px">
  <path
    fill-rule="evenodd"
    fill="rgb(236, 240, 241)"
    d="M279.501,26.998 C279.062,26.852 278.454,26.698 277.679,26.537 C276.903,26.376 276.003,26.295 274.979,26.295 C274.393,26.295 273.772,26.354 273.113,26.471 C272.454,26.588 271.993,26.690 271.730,26.778 L271.730,45.195 L266.417,45.195 L266.417,23.306 C267.442,22.925 268.722,22.566 270.259,22.229 C271.796,21.893 273.501,21.724 275.374,21.724 C275.725,21.724 276.135,21.746 276.603,21.789 C277.071,21.833 277.540,21.893 278.008,21.965 C278.476,22.039 278.930,22.127 279.369,22.229 C279.808,22.332 280.160,22.427 280.423,22.515 L279.501,26.998 ZM260.710,35.349 L245.563,35.349 C245.709,37.195 246.360,38.624 247.517,39.635 C248.672,40.646 250.348,41.151 252.544,41.151 C253.831,41.151 255.009,41.035 256.078,40.800 C257.146,40.565 257.988,40.316 258.602,40.052 L259.305,44.404 C259.012,44.551 258.609,44.705 258.098,44.865 C257.585,45.027 257.000,45.173 256.341,45.305 C255.683,45.437 254.973,45.547 254.212,45.635 C253.451,45.723 252.675,45.767 251.885,45.767 C249.865,45.767 248.109,45.466 246.616,44.865 C245.124,44.265 243.894,43.430 242.928,42.360 C241.963,41.291 241.245,40.030 240.777,38.580 C240.309,37.130 240.075,35.540 240.075,33.811 C240.075,31.789 240.374,30.016 240.975,28.493 C241.574,26.969 242.372,25.701 243.368,24.690 C244.362,23.680 245.504,22.918 246.792,22.405 C248.080,21.893 249.397,21.636 250.744,21.636 C253.905,21.636 256.370,22.618 258.141,24.581 C259.912,26.544 260.798,29.475 260.798,33.371 C260.798,33.665 260.790,33.994 260.776,34.360 C260.761,34.727 260.739,35.057 260.710,35.349 ZM255.178,29.350 C254.973,28.690 254.673,28.119 254.278,27.635 C253.883,27.152 253.400,26.771 252.829,26.493 C252.258,26.214 251.578,26.075 250.787,26.075 C249.968,26.075 249.251,26.229 248.636,26.537 C248.021,26.844 247.501,27.247 247.077,27.745 C246.653,28.244 246.324,28.815 246.090,29.460 C245.855,30.104 245.694,30.764 245.607,31.437 L255.485,31.437 C255.485,30.705 255.382,30.009 255.178,29.350 ZM229.538,33.108 C229.538,30.705 229.245,28.969 228.660,27.899 C228.074,26.830 226.948,26.295 225.279,26.295 C224.430,26.295 223.625,26.434 222.864,26.712 C222.103,26.991 221.532,27.262 221.152,27.526 C221.386,28.258 221.547,29.035 221.635,29.855 C221.723,30.676 221.767,31.555 221.767,32.492 L221.767,45.195 L216.454,45.195 L216.454,33.108 C216.454,30.705 216.154,28.969 215.554,27.899 C214.954,26.830 213.835,26.295 212.196,26.295 C211.610,26.295 210.966,26.339 210.264,26.427 C209.561,26.515 209.034,26.588 208.683,26.646 L208.683,45.195 L203.371,45.195 L203.371,22.954 C204.395,22.662 205.734,22.383 207.388,22.119 C209.041,21.855 210.791,21.724 212.635,21.724 C214.215,21.724 215.510,21.929 216.520,22.339 C217.530,22.750 218.371,23.291 219.045,23.965 C219.367,23.731 219.776,23.482 220.274,23.218 C220.771,22.954 221.328,22.713 221.942,22.493 C222.557,22.273 223.208,22.090 223.896,21.943 C224.584,21.797 225.279,21.724 225.982,21.724 C227.767,21.724 229.238,21.980 230.394,22.493 C231.550,23.006 232.458,23.723 233.116,24.647 C233.775,25.570 234.228,26.684 234.477,27.987 C234.726,29.291 234.850,30.720 234.850,32.273 L234.850,45.195 L229.538,45.195 L229.538,33.108 ZM193.163,45.305 C191.509,45.554 189.643,45.679 187.565,45.679 C186.189,45.679 184.931,45.547 183.789,45.283 C182.648,45.019 181.674,44.595 180.870,44.008 C180.064,43.423 179.435,42.661 178.982,41.723 C178.528,40.785 178.301,39.628 178.301,38.250 C178.301,36.932 178.557,35.818 179.070,34.910 C179.581,34.002 180.277,33.262 181.155,32.690 C182.033,32.119 183.050,31.709 184.207,31.459 C185.362,31.211 186.570,31.086 187.829,31.086 C188.414,31.086 189.028,31.123 189.673,31.196 C190.316,31.269 191.004,31.393 191.736,31.569 L191.736,30.690 C191.736,30.075 191.663,29.489 191.517,28.932 C191.370,28.376 191.114,27.885 190.748,27.460 C190.382,27.035 189.899,26.705 189.299,26.471 C188.699,26.236 187.945,26.119 187.038,26.119 C185.809,26.119 184.682,26.207 183.658,26.383 C182.633,26.559 181.799,26.764 181.155,26.998 L180.497,22.691 C181.170,22.456 182.150,22.222 183.438,21.987 C184.726,21.753 186.101,21.636 187.565,21.636 C189.321,21.636 190.799,21.855 192.000,22.295 C193.199,22.735 194.158,23.350 194.875,24.141 C195.592,24.932 196.105,25.892 196.412,27.020 C196.719,28.148 196.873,29.387 196.873,30.734 L196.873,44.668 C196.053,44.843 194.816,45.056 193.163,45.305 ZM191.736,35.305 C191.443,35.218 191.019,35.130 190.463,35.042 C189.907,34.954 189.292,34.910 188.619,34.910 C188.033,34.910 187.440,34.954 186.841,35.042 C186.241,35.130 185.699,35.291 185.216,35.525 C184.733,35.760 184.345,36.090 184.053,36.514 C183.760,36.939 183.614,37.474 183.614,38.118 C183.614,39.379 184.009,40.250 184.799,40.734 C185.590,41.217 186.658,41.459 188.004,41.459 C189.643,41.459 190.887,41.371 191.736,41.195 L191.736,35.305 ZM163.637,45.810 C161.442,45.810 159.437,45.459 157.622,44.756 C155.807,44.052 154.264,43.027 152.990,41.679 C151.717,40.331 150.729,38.675 150.027,36.712 C149.324,34.749 148.973,32.492 148.973,29.943 C148.973,27.394 149.361,25.138 150.137,23.174 C150.912,21.211 151.973,19.548 153.320,18.185 C154.666,16.823 156.246,15.790 158.061,15.086 C159.876,14.383 161.808,14.032 163.857,14.032 C165.262,14.032 166.513,14.127 167.611,14.317 C168.708,14.508 169.652,14.720 170.442,14.955 C171.233,15.189 171.884,15.438 172.396,15.702 C172.908,15.966 173.267,16.156 173.472,16.273 L171.804,20.801 C170.925,20.273 169.835,19.827 168.533,19.460 C167.230,19.094 165.861,18.910 164.428,18.910 C161.295,18.910 158.902,19.885 157.249,21.833 C155.595,23.783 154.768,26.486 154.768,29.943 C154.768,31.584 154.966,33.086 155.361,34.448 C155.756,35.811 156.341,36.976 157.117,37.943 C157.893,38.910 158.858,39.664 160.015,40.206 C161.171,40.749 162.525,41.019 164.076,41.019 C165.042,41.019 165.876,40.983 166.579,40.910 C167.281,40.837 167.837,40.741 168.247,40.624 L168.247,29.679 L173.779,29.679 L173.779,44.316 C173.018,44.609 171.730,44.931 169.916,45.283 C168.100,45.635 166.008,45.810 163.637,45.810 ZM141.422,42.470 C140.456,43.525 139.292,44.346 137.931,44.931 C136.570,45.517 135.070,45.810 133.431,45.810 C131.792,45.810 130.299,45.517 128.953,44.931 C127.606,44.346 126.450,43.525 125.484,42.470 C124.518,41.415 123.765,40.140 123.223,38.646 C122.681,37.151 122.411,35.496 122.411,33.679 C122.411,31.863 122.681,30.214 123.223,28.734 C123.765,27.255 124.525,25.987 125.506,24.932 C126.487,23.877 127.650,23.064 128.997,22.493 C130.343,21.921 131.821,21.636 133.431,21.636 C135.041,21.636 136.526,21.921 137.887,22.493 C139.249,23.064 140.412,23.877 141.378,24.932 C142.344,25.987 143.097,27.255 143.639,28.734 C144.180,30.214 144.451,31.863 144.451,33.679 C144.451,35.496 144.188,37.151 143.661,38.646 C143.134,40.140 142.388,41.415 141.422,42.470 ZM137.536,28.251 C136.555,26.918 135.187,26.251 133.431,26.251 C131.675,26.251 130.306,26.918 129.326,28.251 C128.345,29.584 127.855,31.393 127.855,33.679 C127.855,35.994 128.345,37.826 129.326,39.173 C130.306,40.522 131.675,41.195 133.431,41.195 C135.187,41.195 136.555,40.522 137.536,39.173 C138.517,37.826 139.007,35.994 139.007,33.679 C139.007,31.393 138.517,29.584 137.536,28.251 ZM117.252,26.537 C116.476,26.376 115.576,26.295 114.552,26.295 C113.966,26.295 113.345,26.354 112.686,26.471 C112.028,26.588 111.567,26.690 111.303,26.778 L111.303,45.195 L105.991,45.195 L105.991,23.306 C107.015,22.925 108.296,22.566 109.832,22.229 C111.369,21.893 113.074,21.724 114.947,21.724 C115.298,21.724 115.708,21.746 116.177,21.789 C116.644,21.833 117.113,21.893 117.582,21.965 C118.049,22.039 118.504,22.127 118.943,22.229 C119.382,22.332 119.733,22.427 119.996,22.515 L119.074,26.998 C118.635,26.852 118.027,26.698 117.252,26.537 ZM97.518,32.119 C96.317,32.925 94.854,33.518 93.127,33.899 C91.400,34.280 89.424,34.470 87.200,34.470 L84.434,34.470 L84.434,45.195 L78.902,45.195 L78.902,15.174 C80.190,14.882 81.617,14.684 83.183,14.581 C84.748,14.479 86.190,14.427 87.507,14.427 C91.927,14.427 95.315,15.233 97.671,16.845 C100.027,18.457 101.206,20.976 101.206,24.405 C101.206,26.192 100.891,27.723 100.262,28.998 C99.632,30.273 98.718,31.313 97.518,32.119 ZM94.840,21.855 C94.459,21.182 93.932,20.654 93.259,20.273 C92.585,19.893 91.788,19.621 90.866,19.460 C89.944,19.299 88.956,19.218 87.903,19.218 C86.498,19.218 85.341,19.262 84.434,19.350 L84.434,29.723 L87.112,29.723 C89.775,29.723 91.825,29.350 93.259,28.602 C94.693,27.855 95.410,26.442 95.410,24.361 C95.410,23.365 95.220,22.530 94.840,21.855 Z"/>
  <path fill-rule="evenodd" fill="rgb(231, 76, 60)" d="M29.953,-0.000 C46.496,-0.000 59.906,13.431 59.906,30.000 C59.906,46.569 46.496,60.000 29.953,60.000 C13.410,60.000 -0.000,46.569 -0.000,30.000 C-0.000,13.431 13.410,-0.000 29.953,-0.000 Z"/>
  <path
    fill-rule="evenodd"
    fill="rgb(236, 240, 241)"
    d="M29.167,18.380 C27.594,18.248 26.612,17.733 25.560,17.182 C24.274,16.508 22.806,15.733 20.339,15.733 C15.074,15.733 8.094,27.934 8.094,37.134 C8.094,41.334 10.252,44.267 13.342,44.267 C17.980,44.267 21.130,41.702 23.920,39.446 C26.052,37.722 27.905,36.242 29.960,36.242 C32.014,36.242 33.868,37.722 36.001,39.446 C38.790,41.702 41.940,44.267 46.578,44.267 C49.668,44.267 51.826,41.334 51.826,37.134 C51.826,27.934 44.845,15.733 39.581,15.733 C37.114,15.733 35.646,16.508 34.361,17.182 C33.353,17.710 32.406,18.195 30.944,18.352 M40.456,23.758 C41.421,23.758 42.205,24.556 42.205,25.541 C42.205,26.527 41.421,27.325 40.456,27.325 C39.490,27.325 38.706,26.527 38.706,25.541 C38.706,24.556 39.490,23.758 40.456,23.758 ZM18.590,24.650 L21.214,24.650 L21.214,27.325 L23.837,27.325 L23.837,30.000 L21.214,30.000 L21.214,32.675 L18.590,32.675 L18.590,30.000 L15.966,30.000 L15.966,27.325 L18.590,27.325 L18.590,24.650 ZM36.957,27.325 C37.924,27.325 38.706,28.124 38.706,29.108 C38.706,30.093 37.924,30.892 36.957,30.892 C35.990,30.892 35.208,30.093 35.208,29.108 C35.208,28.124 35.990,27.325 36.957,27.325 ZM43.954,27.325 C44.922,27.325 45.704,28.124 45.704,29.108 C45.704,30.093 44.922,30.892 43.954,30.892 C42.987,30.892 42.205,30.093 42.205,29.108 C42.205,28.124 42.987,27.325 43.954,27.325 ZM40.456,30.892 C41.421,30.892 42.205,31.690 42.205,32.675 C42.205,33.661 41.421,34.459 40.456,34.459 C39.490,34.459 38.706,33.661 38.706,32.675 C38.706,31.690 39.490,30.892 40.456,30.892 Z"/>
</svg>
