<svg xmlns="http://www.w3.org/2000/svg" xmlns:xlink="http://www.w3.org/1999/xlink" width="60px" height="60px">
  <path fill-rule="evenodd" fill="rgb(231, 76, 60)" d="M29.953,-0.000 C46.496,-0.000 59.906,13.431 59.906,30.000 C59.906,46.569 46.496,60.000 29.953,60.000 C13.410,60.000 -0.000,46.569 -0.000,30.000 C-0.000,13.431 13.410,-0.000 29.953,-0.000 Z"/>
  <path
    fill-rule="evenodd"
    fill="rgb(236, 240, 241)"
    d="M29.167,18.380 C27.594,18.248 26.612,17.733 25.560,17.182 C24.274,16.508 22.806,15.733 20.339,15.733 C15.074,15.733 8.094,27.934 8.094,37.134 C8.094,41.334 10.252,44.267 13.342,44.267 C17.980,44.267 21.130,41.702 23.920,39.446 C26.052,37.722 27.905,36.242 29.960,36.242 C32.014,36.242 33.868,37.722 36.001,39.446 C38.790,41.702 41.940,44.267 46.578,44.267 C49.668,44.267 51.826,41.334 51.826,37.134 C51.826,27.934 44.845,15.733 39.581,15.733 C37.114,15.733 35.646,16.508 34.361,17.182 C33.353,17.710 32.406,18.195 30.944,18.352 M40.456,23.758 C41.421,23.758 42.205,24.556 42.205,25.541 C42.205,26.527 41.421,27.325 40.456,27.325 C39.490,27.325 38.706,26.527 38.706,25.541 C38.706,24.556 39.490,23.758 40.456,23.758 ZM18.590,24.650 L21.214,24.650 L21.214,27.325 L23.837,27.325 L23.837,30.000 L21.214,30.000 L21.214,32.675 L18.590,32.675 L18.590,30.000 L15.966,30.000 L15.966,27.325 L18.590,27.325 L18.590,24.650 ZM36.957,27.325 C37.924,27.325 38.706,28.124 38.706,29.108 C38.706,30.093 37.924,30.892 36.957,30.892 C35.990,30.892 35.208,30.093 35.208,29.108 C35.208,28.124 35.990,27.325 36.957,27.325 ZM43.954,27.325 C44.922,27.325 45.704,28.124 45.704,29.108 C45.704,30.093 44.922,30.892 43.954,30.892 C42.987,30.892 42.205,30.093 42.205,29.108 C42.205,28.124 42.987,27.325 43.954,27.325 ZM40.456,30.892 C41.421,30.892 42.205,31.690 42.205,32.675 C42.205,33.661 41.421,34.459 40.456,34.459 C39.490,34.459 38.706,33.661 38.706,32.675 C38.706,31.690 39.490,30.892 40.456,30.892 Z"/>
</svg>
